<svg width="298" height="297" viewBox="0 0 298 297" fill="none" xmlns="http://www.w3.org/2000/svg">
<circle cx="148.5" cy="148.5" r="148.5" fill="#E75E8D" fill-opacity="0.74"/>
<path d="M60.2257 86C14.7212 86 7.56059 109.848 0.575138 135.49C0.194252 139.849 0 144.262 0 148.72C0 168.923 4.01073 188.183 11.2742 205.752C11.7427 201.084 16.1648 166.553 44.5522 162.133C45.5578 161.976 46.5824 161.904 47.626 161.9C73.2672 161.892 108.514 207.386 108.514 207.386C108.514 207.386 151.76 258.251 194.115 263.151C220.628 266.22 249.995 254.247 269.427 235.918C245.249 269.43 207.503 292.485 164.249 297C229.983 290.191 283.006 240.506 295 176.324C294.992 176.339 294.528 177.335 293.583 179.011C293.454 179.236 293.316 179.473 293.168 179.721C293.096 179.851 293.031 179.965 292.951 180.099C292.932 180.133 292.913 180.164 292.894 180.198C292.448 180.95 291.93 181.786 291.34 182.698C291.035 183.175 290.711 183.675 290.368 184.187C290.361 184.198 290.357 184.206 290.349 184.217C290.182 184.465 290.014 184.71 289.839 184.962C289.767 185.065 289.698 185.164 289.626 185.267C289.511 185.431 289.393 185.595 289.275 185.763C289.134 185.962 288.997 186.152 288.852 186.355C288.795 186.431 288.742 186.507 288.685 186.588C288.609 186.694 288.525 186.805 288.445 186.912C288.319 187.084 288.194 187.256 288.064 187.427C287.851 187.714 287.634 187.996 287.413 188.286C287.207 188.557 286.994 188.828 286.777 189.099C286.765 189.118 286.75 189.137 286.739 189.156C286.563 189.374 286.392 189.588 286.213 189.813C285.912 190.183 285.607 190.561 285.295 190.939C285.272 190.962 285.253 190.989 285.234 191.011C285.002 191.29 284.766 191.561 284.526 191.84C284.415 191.969 284.305 192.095 284.194 192.225C284.042 192.401 283.886 192.58 283.73 192.756C283.524 192.989 283.318 193.221 283.109 193.454C283.04 193.527 282.975 193.599 282.907 193.672C282.789 193.802 282.663 193.928 282.545 194.057C282.381 194.233 282.214 194.412 282.046 194.588C281.844 194.805 281.635 195.023 281.425 195.237C281.338 195.328 281.254 195.42 281.166 195.512C281.033 195.649 280.9 195.783 280.762 195.92C280.709 195.973 280.656 196.027 280.603 196.08C280.267 196.416 279.928 196.748 279.582 197.08C279.559 197.103 279.54 197.126 279.517 197.149C279.448 197.214 279.38 197.283 279.311 197.348C279.167 197.485 279.014 197.622 278.866 197.76C278.69 197.924 278.515 198.092 278.336 198.256C278.294 198.294 278.252 198.332 278.211 198.37C277.921 198.634 277.628 198.897 277.331 199.157C277.171 199.298 277.015 199.435 276.855 199.577C276.668 199.737 276.485 199.897 276.295 200.054C276.017 200.29 275.731 200.535 275.442 200.771C275.373 200.825 275.304 200.882 275.236 200.935C275.064 201.077 274.893 201.214 274.718 201.355C274.527 201.508 274.337 201.661 274.143 201.813C273.842 202.046 273.537 202.275 273.229 202.508C273.16 202.561 273.088 202.615 273.015 202.668C272.981 202.695 272.947 202.722 272.912 202.748C272.566 203.004 272.219 203.252 271.865 203.504C271.541 203.733 271.221 203.962 270.89 204.187C270.821 204.233 270.753 204.279 270.684 204.325C270.486 204.462 270.284 204.592 270.082 204.726C269.881 204.859 269.679 204.993 269.473 205.123C269.13 205.344 268.784 205.558 268.433 205.772C268.365 205.813 268.296 205.855 268.228 205.897C268.167 205.936 268.109 205.97 268.049 206.004C267.725 206.199 267.397 206.394 267.07 206.581C267.032 206.604 266.993 206.627 266.955 206.649C266.879 206.691 266.799 206.737 266.723 206.783C266.369 206.981 266.011 207.176 265.649 207.371C265.253 207.585 264.849 207.794 264.445 208.001C264.403 208.023 264.362 208.046 264.32 208.069C263.935 208.264 263.546 208.451 263.154 208.638C263.086 208.669 263.021 208.699 262.956 208.733C262.895 208.756 262.838 208.783 262.781 208.81C262.609 208.89 262.438 208.97 262.267 209.05C262.251 209.058 262.24 209.066 262.225 209.069C262.008 209.169 261.783 209.264 261.562 209.363C261.467 209.401 261.372 209.44 261.28 209.482C261.017 209.592 260.755 209.703 260.488 209.814C260.435 209.837 260.381 209.863 260.324 209.886C260.023 210.008 259.722 210.127 259.418 210.245C259.395 210.253 259.376 210.256 259.357 210.264C259.136 210.348 258.907 210.432 258.683 210.516C258.58 210.554 258.481 210.592 258.378 210.63C258.233 210.68 258.092 210.73 257.944 210.783C257.757 210.848 257.567 210.917 257.376 210.982C257.068 211.085 256.755 211.188 256.443 211.287C256.416 211.295 256.393 211.298 256.371 211.306C256.142 211.379 255.91 211.447 255.681 211.52C255.571 211.55 255.46 211.585 255.35 211.615C255.205 211.661 255.056 211.703 254.912 211.745C254.714 211.798 254.512 211.856 254.31 211.909C253.944 212.008 253.582 212.096 253.217 212.188C252.863 212.276 252.501 212.36 252.143 212.44C251.48 212.589 250.817 212.722 250.143 212.844C249.956 212.879 249.766 212.913 249.579 212.944C245.096 213.703 240.278 213.902 235.109 213.363C186.436 208.268 146.462 146.922 146.462 146.922C146.462 146.922 146.226 146.556 145.887 146.04C145.876 146.025 145.856 145.995 145.845 145.979C145.563 145.552 145.182 144.983 144.695 144.269C144.112 143.418 143.438 142.449 142.581 141.258C142.566 141.235 142.543 141.208 142.528 141.181C139.739 137.082 133.478 128.36 124.706 119.051C119.846 113.52 113.077 106.31 106.919 101.52C106.553 101.233 106.187 100.955 105.825 100.688C104.995 100.077 104.176 99.5119 103.38 99.0119C103.228 98.9127 103.072 98.8173 102.919 98.7257C102.733 98.6111 102.55 98.5005 102.367 98.3936C91.1536 91.9124 88.3046 89.7788 75.1526 87.0382C71.3209 86.1298 64.743 86 60.2257 86Z" fill="#BA4F74"/>
<path d="M91.3682 28.7622C90.7278 28.766 90.0988 28.7737 89.4698 28.7851C89.2754 28.7927 89.0886 28.8003 88.8942 28.808C88.8065 28.808 88.7188 28.8118 88.6349 28.8156C88.6159 28.8156 88.5968 28.8118 88.5739 28.8156C88.0822 28.8308 87.598 28.8499 87.1101 28.8728C86.7098 28.8918 86.3096 28.9147 85.9169 28.9414C85.8369 28.9452 85.753 28.949 85.6691 28.9528C85.6119 28.9566 85.5548 28.9643 85.4976 28.9681C85.0096 28.9986 84.5217 29.0405 84.0414 29.0786C84.0261 29.0786 84.0147 29.0786 83.9994 29.0786C83.9727 29.0824 83.9422 29.0824 83.9156 29.0862C83.4047 29.1282 82.9015 29.1739 82.4022 29.2235C82.3069 29.2349 82.2116 29.2425 82.1163 29.2502C81.0527 29.3607 80.012 29.4865 78.9865 29.6276C78.9065 29.639 78.8302 29.6504 78.7502 29.6619C78.6053 29.6809 78.4605 29.7076 78.3194 29.7267C77.7743 29.8067 77.2368 29.8906 76.7069 29.9821C76.1656 30.0698 75.6319 30.1613 75.102 30.2604C74.9305 30.2909 74.7627 30.3252 74.5912 30.3595C74.1757 30.4395 73.7602 30.5234 73.3523 30.6111C73.1998 30.6416 73.0473 30.6683 72.8948 30.7026C72.567 30.7712 72.2468 30.8398 71.9265 30.9161C71.6368 30.9809 71.3471 31.0457 71.065 31.1143C70.9659 31.1372 70.8706 31.1638 70.7715 31.1867C70.3521 31.2858 69.9366 31.3926 69.5249 31.4955C69.3457 31.545 69.1742 31.5908 68.995 31.6365C68.6939 31.7166 68.3889 31.8005 68.0954 31.8805C68.0801 31.8843 68.0687 31.8919 68.0535 31.8958C67.5236 32.0444 66.9937 32.1893 66.4752 32.3456C66.4447 32.3532 66.4143 32.3608 66.3838 32.3723C65.8996 32.5171 65.4269 32.6696 64.958 32.8221C64.9009 32.8412 64.8437 32.8564 64.7865 32.8755C64.3405 33.0203 63.9059 33.169 63.4713 33.3177C63.4408 33.3291 63.4103 33.3405 63.3798 33.352C62.8995 33.5197 62.4268 33.6913 61.9617 33.8628C61.0659 34.1906 60.2005 34.5299 59.3619 34.8768C59.278 34.9111 59.1942 34.9416 59.1103 34.9759C58.7062 35.1437 58.3097 35.3152 57.9171 35.4868C57.9019 35.4906 57.8904 35.502 57.8752 35.5058C57.513 35.6659 57.1547 35.8222 56.804 35.9823C56.7354 36.0128 56.6705 36.0471 56.6019 36.0776C56.2436 36.2415 55.8891 36.4055 55.5422 36.5732C55.3935 36.6418 55.2486 36.7142 55.1038 36.7829C54.4024 37.1298 53.7238 37.4767 53.0681 37.8236C52.9423 37.8922 52.8127 37.957 52.6907 38.0256C52.4506 38.1514 52.2066 38.2848 51.9741 38.4144C51.6195 38.6089 51.2726 38.8071 50.9334 39.0053C50.9067 39.0206 50.8762 39.0358 50.8495 39.0511C50.1976 39.4246 49.5762 39.802 48.9854 40.168C48.6766 40.3624 48.3716 40.5568 48.0781 40.7474C47.7808 40.938 47.4948 41.1248 47.2127 41.3078C46.9345 41.4984 46.6638 41.6852 46.397 41.8682C46.1339 42.0512 45.8747 42.2303 45.6231 42.4095C45.3715 42.5887 45.1352 42.7678 44.8988 42.9394C44.6663 43.1147 44.4375 43.2825 44.2164 43.4502C44.0678 43.5646 43.9344 43.6637 43.7933 43.7742C43.6256 43.9038 43.4655 44.0335 43.3092 44.1593C43.2329 44.2203 43.1529 44.2851 43.0766 44.3461C42.8327 44.5405 42.5963 44.7311 42.3752 44.9141C42.0474 45.1885 41.7424 45.4554 41.4641 45.6955C41.1858 45.9433 40.9228 46.1759 40.6979 46.3855C40.6903 46.3893 40.6826 46.4008 40.675 46.4046C40.5416 46.5342 40.4463 46.6295 40.3319 46.7439C17.6805 70.7333 2.91625 102.244 0.182983 137.129C7.31159 110.981 13.8836 86.2714 60.2768 86.2714C64.7979 86.2714 71.3776 86.3972 75.2164 87.3045C88.3757 90.0454 91.231 92.1725 102.454 98.6493C102.637 98.756 102.816 98.8666 103.003 98.9809C103.155 99.0724 103.311 99.1677 103.468 99.263C104.265 99.7662 105.084 100.327 105.915 100.94C106.277 101.207 106.639 101.485 107.009 101.768C113.173 106.556 119.947 113.757 124.812 119.28C133.591 128.578 139.858 137.289 142.648 141.383C142.664 141.406 142.683 141.432 142.702 141.455C143.56 142.648 144.234 143.617 144.814 144.463C145.305 145.18 145.687 145.748 145.969 146.175C145.98 146.19 145.999 146.22 146.007 146.236C146.35 146.75 146.586 147.116 146.586 147.116C146.586 147.116 186.59 208.384 235.309 213.469C240.478 214.011 245.3 213.813 249.791 213.054C249.978 213.02 250.165 212.989 250.351 212.955C251.03 212.833 251.693 212.696 252.357 212.551C252.715 212.471 253.073 212.387 253.428 212.299C253.798 212.208 254.16 212.116 254.522 212.021C254.724 211.964 254.926 211.91 255.128 211.853C255.273 211.815 255.418 211.773 255.566 211.727C255.677 211.697 255.784 211.663 255.894 211.628C256.127 211.56 256.355 211.491 256.584 211.419C256.611 211.411 256.634 211.403 256.657 211.396C256.969 211.297 257.286 211.197 257.594 211.091C257.785 211.026 257.976 210.961 258.162 210.892C258.307 210.843 258.452 210.793 258.593 210.74C258.696 210.706 258.795 210.664 258.898 210.629C259.123 210.546 259.352 210.462 259.577 210.378C259.596 210.37 259.615 210.363 259.634 210.359C259.939 210.241 260.244 210.122 260.545 210C260.598 209.978 260.656 209.951 260.709 209.924C260.976 209.817 261.239 209.707 261.498 209.596C261.593 209.554 261.689 209.516 261.784 209.474C262.005 209.379 262.226 209.284 262.447 209.185C262.459 209.177 262.474 209.169 262.485 209.162C262.661 209.086 262.828 209.006 263.004 208.925C263.061 208.899 263.118 208.872 263.175 208.845C263.24 208.815 263.309 208.784 263.374 208.754C263.766 208.567 264.155 208.377 264.54 208.182C264.586 208.163 264.624 208.14 264.666 208.117C265.074 207.911 265.478 207.702 265.874 207.488C266.236 207.294 266.595 207.099 266.949 206.897C267.026 206.855 267.102 206.81 267.182 206.764C267.22 206.745 267.254 206.722 267.292 206.699C267.624 206.509 267.952 206.318 268.276 206.124C268.333 206.089 268.394 206.051 268.455 206.017C268.524 205.975 268.592 205.933 268.661 205.891C269.008 205.678 269.359 205.46 269.702 205.243C269.907 205.11 270.106 204.976 270.312 204.843C270.514 204.713 270.716 204.58 270.914 204.446C270.982 204.401 271.051 204.355 271.12 204.309C271.448 204.084 271.772 203.855 272.096 203.627C272.446 203.375 272.797 203.123 273.14 202.872C273.178 202.845 273.213 202.815 273.247 202.792C273.319 202.738 273.388 202.685 273.46 202.632C273.769 202.399 274.074 202.17 274.375 201.934C274.57 201.785 274.76 201.629 274.951 201.477C275.126 201.339 275.298 201.202 275.469 201.061C275.538 201.004 275.607 200.951 275.675 200.893C275.961 200.661 276.247 200.417 276.529 200.181C276.716 200.02 276.903 199.864 277.086 199.704C277.246 199.563 277.406 199.426 277.566 199.285C277.86 199.022 278.157 198.762 278.447 198.496C278.488 198.457 278.53 198.423 278.572 198.385C278.752 198.217 278.927 198.053 279.102 197.886C279.251 197.748 279.4 197.615 279.544 197.478C279.617 197.409 279.682 197.344 279.75 197.276C279.773 197.257 279.796 197.234 279.819 197.211C280.166 196.875 280.505 196.548 280.841 196.212C280.894 196.159 280.947 196.105 280.997 196.052C281.134 195.915 281.268 195.778 281.405 195.64C281.492 195.553 281.572 195.457 281.66 195.37C281.874 195.152 282.079 194.935 282.285 194.722C282.453 194.542 282.617 194.367 282.781 194.192C282.903 194.062 283.029 193.936 283.147 193.807C283.215 193.73 283.28 193.662 283.345 193.586C283.559 193.353 283.761 193.124 283.97 192.892C284.127 192.716 284.279 192.537 284.435 192.362C284.546 192.232 284.653 192.107 284.763 191.977C285.003 191.699 285.244 191.424 285.472 191.15C285.495 191.123 285.514 191.1 285.533 191.077C285.85 190.696 286.155 190.322 286.456 189.949C286.635 189.728 286.806 189.514 286.978 189.293C286.993 189.274 287.005 189.259 287.02 189.24C287.237 188.965 287.447 188.695 287.657 188.424C287.878 188.138 288.095 187.852 288.305 187.57C288.434 187.399 288.564 187.227 288.69 187.055C288.77 186.945 288.85 186.838 288.93 186.731C288.987 186.651 289.04 186.575 289.094 186.499C289.239 186.297 289.38 186.106 289.521 185.908C289.639 185.74 289.753 185.576 289.871 185.412C289.944 185.306 290.012 185.21 290.081 185.108C290.256 184.856 290.428 184.608 290.592 184.364C290.6 184.353 290.603 184.341 290.611 184.33C290.958 183.819 291.282 183.323 291.587 182.847C292.178 181.936 292.692 181.101 293.138 180.35C293.157 180.316 293.18 180.281 293.199 180.251C293.279 180.114 293.344 179.999 293.417 179.874C293.562 179.622 293.699 179.389 293.828 179.164C294.778 177.491 295.243 176.492 295.246 176.481C296.924 167.545 297.808 158.324 297.808 148.904C297.808 147.147 297.774 145.393 297.713 143.651C297.698 143.67 297.667 143.712 297.576 143.823C297.541 143.864 297.534 143.868 297.48 143.929C297.442 143.971 297.412 144.013 297.362 144.067C297.324 144.112 297.29 144.15 297.244 144.2C297.187 144.265 297.133 144.318 297.065 144.391C296.95 144.516 296.821 144.646 296.672 144.795C296.615 144.856 296.569 144.905 296.508 144.97C296.409 145.069 296.31 145.164 296.196 145.271C296.131 145.336 296.077 145.389 296.009 145.45C295.887 145.569 295.769 145.679 295.631 145.801C295.559 145.87 295.494 145.927 295.422 145.995C295.277 146.125 295.132 146.243 294.976 146.38C294.739 146.583 294.492 146.788 294.225 147.002C293.962 147.215 293.68 147.433 293.386 147.658C293.089 147.879 292.78 148.104 292.456 148.332C291.968 148.679 291.446 149.03 290.885 149.381C290.699 149.499 290.508 149.613 290.314 149.731C287.211 151.611 283.09 153.479 277.89 154.622C277.566 154.695 277.234 154.763 276.903 154.828C276.567 154.893 276.232 154.954 275.885 155.011C275.202 155.133 274.501 155.24 273.784 155.331C273.426 155.377 273.064 155.419 272.698 155.457C271.966 155.533 271.215 155.598 270.449 155.64C270.449 155.644 270.445 155.64 270.441 155.64C269.675 155.686 268.886 155.716 268.081 155.728C267.681 155.735 267.273 155.739 266.862 155.735C265.63 155.724 264.361 155.674 263.05 155.575C261.753 155.48 260.415 155.343 259.039 155.152C259.024 155.148 259.013 155.148 258.997 155.144C258.7 155.103 258.395 155.053 258.09 155.007C257.899 154.977 257.705 154.95 257.514 154.92C257.438 154.908 257.358 154.893 257.282 154.881C256.889 154.817 256.493 154.748 256.096 154.676C255.635 154.588 255.17 154.5 254.701 154.405C254.686 154.401 254.671 154.401 254.655 154.397C254.183 154.298 253.698 154.195 253.218 154.085C253.207 154.085 253.195 154.081 253.184 154.077C252.696 153.967 252.204 153.848 251.705 153.726C251.701 153.726 251.697 153.73 251.693 153.726C251.19 153.604 250.679 153.475 250.168 153.338C249.81 153.242 249.448 153.136 249.093 153.033C249.09 153.033 249.09 153.033 249.086 153.033C248.728 152.926 248.377 152.815 248.018 152.701C247.401 152.499 246.783 152.285 246.17 152.057C246.074 152.022 245.983 151.988 245.891 151.95C245.887 151.95 245.887 151.95 245.884 151.95C245.529 151.817 245.182 151.679 244.832 151.534C244.233 151.29 243.638 151.039 243.047 150.772C242.941 150.722 242.834 150.677 242.727 150.627C242.727 150.627 242.723 150.627 242.72 150.627C242.373 150.467 242.03 150.299 241.679 150.132C240.291 149.453 238.911 148.71 237.543 147.905C236.86 147.501 236.178 147.078 235.5 146.644C235.16 146.426 234.825 146.205 234.486 145.984C232.797 144.859 231.123 143.64 229.465 142.34C229.137 142.077 228.802 141.817 228.47 141.551C227.811 141.017 227.151 140.464 226.495 139.908C225.84 139.347 225.192 138.779 224.54 138.196C224.54 138.196 224.536 138.192 224.532 138.192C224.208 137.899 223.888 137.605 223.568 137.308C223.564 137.308 223.56 137.312 223.56 137.308C223.232 137.01 222.916 136.713 222.592 136.408C221.62 135.497 220.655 134.563 219.695 133.606C219.054 132.966 218.414 132.318 217.777 131.658C217.461 131.33 217.144 130.995 216.828 130.663C216.828 130.663 216.832 130.659 216.828 130.656C216.675 130.495 216.519 130.335 216.367 130.175C216.035 129.825 215.711 129.474 215.383 129.119C215.231 128.955 215.086 128.788 214.933 128.624C212.726 126.218 210.538 123.71 208.377 121.118C208.373 121.114 208.377 121.11 208.377 121.11C208.098 120.775 207.816 120.439 207.538 120.104C206.585 118.945 205.636 117.771 204.686 116.585C200.405 111.222 196.193 105.587 192.03 99.8882C192.03 99.8844 192.03 99.8806 192.03 99.8806C190.845 98.2528 189.659 96.6251 188.477 94.9897C188.474 94.9897 188.474 94.9859 188.47 94.9859C184.925 90.0835 181.406 85.1774 177.903 80.3932C177.899 80.3932 177.903 80.3894 177.903 80.3894C176.732 78.7959 175.566 77.2177 174.399 75.6586C174.399 75.6548 174.403 75.6509 174.399 75.6509C172.65 73.3103 170.896 71.0154 169.15 68.7739C169.146 68.7739 169.15 68.7701 169.15 68.7663C166.238 65.0305 163.321 61.4623 160.398 58.1268C160.394 58.1229 160.398 58.1191 160.398 58.1191C159.521 57.1204 158.644 56.1407 157.763 55.1838C157.18 54.5472 156.585 53.9258 156.002 53.3083C155.998 53.3083 156.002 53.3045 156.002 53.3007C155.415 52.6869 154.824 52.0846 154.237 51.4937C153.944 51.1964 153.65 50.9028 153.357 50.6131C152.766 50.0299 152.175 49.4619 151.584 48.9015C150.993 48.3449 150.402 47.7998 149.808 47.2661C149.217 46.7362 148.626 46.2216 148.031 45.7146C147.734 45.463 147.436 45.2152 147.135 44.9674C146.838 44.7234 146.544 44.4833 146.247 44.2469C142.073 40.9075 137.849 38.2734 133.549 36.5465C133.244 36.4245 132.943 36.3025 132.634 36.1882C132.634 36.1882 132.63 36.1882 132.626 36.1882C132.321 36.0738 132.017 35.9671 131.708 35.8641C131.277 35.7193 130.854 35.5744 130.427 35.4334C130.366 35.4105 130.305 35.3953 130.244 35.3724C129.878 35.2542 129.516 35.1399 129.154 35.0217C129.032 34.9836 128.91 34.9492 128.791 34.9111C128.487 34.8158 128.189 34.7167 127.888 34.6252C127.709 34.568 127.53 34.5147 127.351 34.4575C127.11 34.3851 126.874 34.3126 126.634 34.2402C126.394 34.1678 126.157 34.0991 125.917 34.0267C125.742 33.9772 125.57 33.9276 125.395 33.878C125.098 33.7904 124.804 33.7027 124.507 33.6188C124.392 33.5845 124.278 33.5502 124.16 33.5197C123.805 33.4168 123.455 33.3215 123.1 33.2262C123.047 33.2109 122.989 33.1957 122.936 33.1804C122.841 33.1538 122.749 33.1309 122.658 33.108C121.937 32.9136 121.221 32.723 120.508 32.5438C120.447 32.5286 120.39 32.5133 120.329 32.4981C119.989 32.4142 119.646 32.3303 119.307 32.2465C119.189 32.216 119.074 32.1893 118.956 32.1588C118.674 32.094 118.4 32.0254 118.121 31.9606C117.725 31.8691 117.332 31.7776 116.94 31.6899C116.711 31.6365 116.486 31.587 116.257 31.5374C116.097 31.5031 115.937 31.465 115.773 31.4307C115.491 31.3697 115.205 31.3125 114.927 31.2515C114.752 31.2172 114.58 31.1829 114.408 31.1448C114.138 31.0914 113.875 31.0342 113.604 30.9809C113.558 30.9694 113.509 30.9618 113.459 30.9542C112.693 30.8055 111.931 30.6645 111.18 30.531C111.119 30.5196 111.061 30.5082 111 30.4967C110.928 30.4853 110.859 30.4777 110.787 30.4624C110.429 30.4014 110.078 30.3366 109.72 30.2794C109.693 30.2756 109.666 30.268 109.64 30.2642C109.098 30.1765 108.553 30.0888 108.016 30.005C107.867 29.9859 107.718 29.9707 107.573 29.9478C107.444 29.9287 107.318 29.9058 107.188 29.8868C106.674 29.8144 106.159 29.7419 105.648 29.6771C105.534 29.6619 105.42 29.6504 105.305 29.6352C104.848 29.578 104.39 29.5208 103.94 29.4713C103.792 29.4522 103.647 29.4332 103.502 29.4179C103.491 29.4141 103.483 29.4179 103.475 29.4179C103.376 29.4065 103.277 29.395 103.174 29.3836C102.576 29.3188 101.977 29.2578 101.386 29.2044C100.727 29.1434 100.071 29.0862 99.4231 29.0405C99.385 29.0367 99.3469 29.0367 99.3088 29.0329C99.1029 29.0176 98.9009 29.0062 98.695 28.9948C98.2147 28.9605 97.742 28.9338 97.2693 28.9071C96.1981 28.8499 95.146 28.8118 94.1053 28.7889C94.0329 28.7851 93.9642 28.7813 93.8918 28.7813C93.5906 28.7737 93.2895 28.7698 92.9921 28.766C92.447 28.7622 91.9057 28.7584 91.3682 28.7622Z" fill="#E295B0"/>
<path d="M39.2798 47.7884C36.3521 49.0845 76.2113 8.87075 113.913 4.13232C142.473 0.545141 186.449 16.9371 205.643 36.1119C233.186 63.6391 227.715 70.8935 259.096 100.025C277.162 116.795 291.968 107.451 291.968 107.451C295.224 118.983 298.109 131.628 297.743 143.613C297.743 143.613 283.311 162.208 250.165 153.334C204.107 141.002 171.197 49.2294 131.708 35.8604C68.9455 14.6194 39.2798 47.7884 39.2798 47.7884Z" fill="#EEB0C5"/>
<path d="M50.5039 184V114H60.5039V175.3H98.4039V184H50.5039ZM109.879 184V114H118.079L149.479 166.9H145.079L176.079 114H184.279L184.379 184H174.779L174.679 129.1H176.979L149.379 175.5H144.779L116.979 129.1H119.479V184H109.879ZM225.787 184.8C220.453 184.8 215.353 184 210.487 182.4C205.62 180.733 201.787 178.6 198.987 176L202.687 168.2C205.353 170.533 208.753 172.467 212.887 174C217.02 175.533 221.32 176.3 225.787 176.3C229.853 176.3 233.153 175.833 235.687 174.9C238.22 173.967 240.087 172.7 241.287 171.1C242.487 169.433 243.087 167.567 243.087 165.5C243.087 163.1 242.287 161.167 240.687 159.7C239.153 158.233 237.12 157.067 234.587 156.2C232.12 155.267 229.387 154.467 226.387 153.8C223.387 153.133 220.353 152.367 217.287 151.5C214.287 150.567 211.52 149.4 208.987 148C206.52 146.6 204.52 144.733 202.987 142.4C201.453 140 200.687 136.933 200.687 133.2C200.687 129.6 201.62 126.3 203.487 123.3C205.42 120.233 208.353 117.8 212.287 116C216.287 114.133 221.353 113.2 227.487 113.2C231.553 113.2 235.587 113.733 239.587 114.8C243.587 115.867 247.053 117.4 249.987 119.4L246.687 127.4C243.687 125.4 240.52 123.967 237.187 123.1C233.853 122.167 230.62 121.7 227.487 121.7C223.553 121.7 220.32 122.2 217.787 123.2C215.253 124.2 213.387 125.533 212.187 127.2C211.053 128.867 210.487 130.733 210.487 132.8C210.487 135.267 211.253 137.233 212.787 138.7C214.387 140.167 216.42 141.333 218.887 142.2C221.42 143.067 224.187 143.867 227.187 144.6C230.187 145.267 233.187 146.033 236.187 146.9C239.253 147.767 242.02 148.9 244.487 150.3C247.02 151.7 249.053 153.567 250.587 155.9C252.12 158.233 252.887 161.233 252.887 164.9C252.887 168.433 251.92 171.733 249.987 174.8C248.053 177.8 245.053 180.233 240.987 182.1C236.987 183.9 231.92 184.8 225.787 184.8Z" fill="white"/>
</svg>
