<svg width="297" height="297" viewBox="0 0 297 297" fill="none" xmlns="http://www.w3.org/2000/svg">
<circle cx="148.5" cy="148.5" r="148.5" fill="#0D6EFD"/>
<path d="M81.5973 184.8C76.2639 184.8 71.1639 184 66.2973 182.4C61.4306 180.733 57.5973 178.6 54.7973 176L58.4973 168.2C61.1639 170.533 64.5639 172.467 68.6973 174C72.8306 175.533 77.1306 176.3 81.5973 176.3C85.6639 176.3 88.9639 175.833 91.4973 174.9C94.0306 173.967 95.8973 172.7 97.0973 171.1C98.2973 169.433 98.8973 167.567 98.8973 165.5C98.8973 163.1 98.0973 161.167 96.4973 159.7C94.9639 158.233 92.9306 157.067 90.3973 156.2C87.9306 155.267 85.1973 154.467 82.1973 153.8C79.1973 153.133 76.1639 152.367 73.0973 151.5C70.0973 150.567 67.3306 149.4 64.7973 148C62.3306 146.6 60.3306 144.733 58.7973 142.4C57.2639 140 56.4973 136.933 56.4973 133.2C56.4973 129.6 57.4306 126.3 59.2973 123.3C61.2306 120.233 64.1639 117.8 68.0973 116C72.0973 114.133 77.1639 113.2 83.2973 113.2C87.3639 113.2 91.3973 113.733 95.3973 114.8C99.3973 115.867 102.864 117.4 105.797 119.4L102.497 127.4C99.4973 125.4 96.3306 123.967 92.9973 123.1C89.6639 122.167 86.4306 121.7 83.2973 121.7C79.3639 121.7 76.1306 122.2 73.5973 123.2C71.0639 124.2 69.1973 125.533 67.9973 127.2C66.8639 128.867 66.2973 130.733 66.2973 132.8C66.2973 135.267 67.0639 137.233 68.5973 138.7C70.1973 140.167 72.2306 141.333 74.6973 142.2C77.2306 143.067 79.9973 143.867 82.9973 144.6C85.9973 145.267 88.9973 146.033 91.9973 146.9C95.0639 147.767 97.8306 148.9 100.297 150.3C102.831 151.7 104.864 153.567 106.397 155.9C107.931 158.233 108.697 161.233 108.697 164.9C108.697 168.433 107.731 171.733 105.797 174.8C103.864 177.8 100.864 180.233 96.7973 182.1C92.7973 183.9 87.7306 184.8 81.5973 184.8ZM132.307 147.1H168.407V155.7H132.307V147.1ZM133.307 184H123.307V114H172.707V122.7H133.307V184ZM172.961 184L204.661 114H214.561L246.361 184H235.861L207.561 119.6H211.561L183.261 184H172.961ZM186.461 166.5L189.161 158.5H228.561L231.461 166.5H186.461Z" fill="white"/>
</svg>
